<?xml version="1.0" encoding="UTF-8" standalone="no"?>
<!-- Created with Inkscape (http://www.inkscape.org/) -->

<svg
   version="1.1"
   id="svg1559"
   width="556"
   height="449"
   viewBox="0 0 556 449"
   sodipodi:docname="drawing.svg"
   inkscape:version="1.1.2 (b8e25be833, 2022-02-05)"
   xmlns:inkscape="http://www.inkscape.org/namespaces/inkscape"
   xmlns:sodipodi="http://sodipodi.sourceforge.net/DTD/sodipodi-0.dtd"
   xmlns="http://www.w3.org/2000/svg"
   xmlns:svg="http://www.w3.org/2000/svg">
  <defs
     id="defs1563" />
  <sodipodi:namedview
     id="namedview1561"
     pagecolor="#ffffff"
     bordercolor="#999999"
     borderopacity="1"
     inkscape:pageshadow="0"
     inkscape:pageopacity="0"
     inkscape:pagecheckerboard="0"
     showgrid="false"
     inkscape:zoom="3.5991091"
     inkscape:cx="156.84437"
     inkscape:cy="185.74041"
     inkscape:window-width="1920"
     inkscape:window-height="1001"
     inkscape:window-x="-9"
     inkscape:window-y="-9"
     inkscape:window-maximized="1"
     inkscape:current-layer="layer1" />
  <g
     inkscape:groupmode="layer"
     id="layer1"
     inkscape:label="Image 1">
    <path
       style="fill:#7234ff;fill-opacity:1;stroke:none;stroke-width:0.785869;stroke-opacity:1"
       d="M 196.07423,425.18178 C 158.66324,414.4184 114.18883,409.97721 81.919528,394.88623 25.493348,345.899 -16.785699,255.33064 24.112485,184.0826 60.41378,120.84273 39.698816,128.70223 53.997769,100.25188 59.887466,88.533269 79.170748,55.685754 113.16509,41.865706 164.02611,20.613852 205.85341,15.244973 264.05187,18.12041 c 49.90391,6.131679 87.29643,20.157043 111.99711,55.730931 19.3827,28.768059 44.53605,42.912599 72.2891,52.678989 34.75673,12.62342 75.47721,35.66582 66.11956,75.83085 -11.56614,30.56188 -36.93132,50.26062 -51.51797,72.29992 -16.58489,22.39606 -20.38666,47.42265 -30.9508,66.3543 -21.06881,34.12912 -47.88042,61.80264 -83.45611,78.07879 -55.07585,23.50163 -94.23361,20.87087 -152.45853,6.08759 z"
       id="path16860"
       sodipodi:nodetypes="ccssccccccccc" />
  </g>
</svg>
